<svg width="615" height="528" viewBox="0 0 615 528" fill="none" xmlns="http://www.w3.org/2000/svg">
<path d="M43.5 57.5C67.5 -8.10002 141 2.16665 172 29.5C185.043 41 215 41.1499 319 14.5C479 -26.5 538.586 34.6807 570.5 68.5C604 104 602 178.5 613.5 303.5C621.728 392.936 563 458 488.5 482C448.028 495.038 416 472.5 367.5 482C319 491.5 269.6 561.2 116 506C-37.6 450.8 -10.5 277 43.5 199C68.3403 163.12 15.5122 134 43.5 57.5Z" fill="url(#paint0_linear_37_2)"/>
<path d="M474.674 418.138H353.382C348.969 418.134 344.738 416.378 341.618 413.257C338.498 410.135 336.742 405.903 336.737 401.489V210.103C336.742 205.688 338.498 201.456 341.618 198.335C344.738 195.214 348.969 193.458 353.382 193.453H474.674C479.087 193.458 483.318 195.214 486.438 198.335C489.558 201.456 491.313 205.688 491.318 210.103V401.489C491.313 405.903 489.558 410.135 486.438 413.257C483.318 416.378 479.087 418.134 474.674 418.138Z" fill="#E6E6E6"/>
<path d="M476.685 203.388H353.153C351.772 203.39 350.447 203.939 349.471 204.917C348.494 205.894 347.944 207.218 347.943 208.6V402.482C347.945 403.863 348.494 405.188 349.471 406.165C350.448 407.142 351.772 407.692 353.153 407.694H476.685C478.067 407.692 479.391 407.143 480.368 406.165C481.345 405.188 481.894 403.864 481.896 402.482V208.6C481.894 207.218 481.345 205.894 480.368 204.917C479.391 203.939 478.067 203.39 476.685 203.388Z" fill="white"/>
<path d="M356.346 193.453C356.347 193.115 356.481 192.792 356.72 192.553C356.959 192.314 357.282 192.18 357.62 192.179H366.278C366.616 192.179 366.94 192.313 367.179 192.552C367.418 192.791 367.552 193.115 367.552 193.453C367.552 193.791 367.418 194.115 367.179 194.354C366.94 194.593 366.616 194.727 366.278 194.727H357.62C357.282 194.726 356.959 194.592 356.72 194.353C356.481 194.114 356.347 193.791 356.346 193.453Z" fill="#E6E6E6"/>
<path d="M370.608 193.453C370.608 193.115 370.742 192.792 370.981 192.553C371.22 192.314 371.543 192.18 371.881 192.179H380.54C380.877 192.179 381.201 192.313 381.44 192.552C381.679 192.791 381.813 193.115 381.813 193.453C381.813 193.791 381.679 194.115 381.44 194.354C381.201 194.593 380.877 194.727 380.54 194.727H371.881C371.543 194.726 371.22 194.592 370.981 194.353C370.742 194.114 370.608 193.791 370.608 193.453Z" fill="#E6E6E6"/>
<path d="M456.175 193.453C456.175 193.115 456.309 192.792 456.548 192.553C456.787 192.314 457.111 192.18 457.448 192.179H466.107C466.444 192.179 466.768 192.313 467.007 192.552C467.246 192.791 467.38 193.115 467.38 193.453C467.38 193.791 467.246 194.115 467.007 194.354C466.768 194.593 466.444 194.727 466.107 194.727H457.448C457.111 194.726 456.787 194.592 456.548 194.353C456.309 194.114 456.175 193.791 456.175 193.453Z" fill="#E6E6E6"/>
<path d="M432.038 403.699C432.038 405.039 432.012 406.374 431.951 407.694H353.153C351.772 407.692 350.448 407.142 349.471 406.165C348.494 405.188 347.945 403.863 347.943 402.482V304.894C371.408 308.686 392.758 320.712 408.167 338.816C423.576 356.921 432.038 379.922 432.038 403.699Z" fill="#F2F2F2"/>
<path d="M429.362 253.212H399.974C398.637 253.212 397.553 254.296 397.553 255.634V258.657C397.553 259.994 398.637 261.079 399.974 261.079H429.362C430.699 261.079 431.783 259.994 431.783 258.657V255.634C431.783 254.296 430.699 253.212 429.362 253.212Z" fill="#00D990"/>
<path d="M448.04 268.946H381.297C379.959 268.946 378.875 270.03 378.875 271.368V274.39C378.875 275.728 379.959 276.812 381.297 276.812H448.04C449.377 276.812 450.461 275.728 450.461 274.39V271.368C450.461 270.03 449.377 268.946 448.04 268.946Z" fill="#E6E6E6"/>
<path d="M448.04 284.679H381.297C379.959 284.679 378.875 285.764 378.875 287.101V290.124C378.875 291.462 379.959 292.546 381.297 292.546H448.04C449.377 292.546 450.461 291.462 450.461 290.124V287.101C450.461 285.764 449.377 284.679 448.04 284.679Z" fill="#E6E6E6"/>
<path d="M436.611 394.444C436.228 394.461 435.849 394.361 435.526 394.156C435.202 393.951 434.949 393.651 434.801 393.298C434.653 392.944 434.618 392.554 434.699 392.179C434.781 391.805 434.975 391.464 435.257 391.204L435.385 390.695C435.368 390.654 435.351 390.614 435.334 390.573C434.948 389.662 434.302 388.885 433.477 388.341C432.652 387.796 431.684 387.507 430.695 387.511C429.706 387.515 428.74 387.81 427.919 388.361C427.098 388.912 426.458 389.694 426.079 390.607C424.565 394.254 422.638 397.907 422.164 401.763C421.955 403.467 422.043 405.195 422.424 406.869C418.869 399.112 417.023 390.68 417.011 382.146C417.01 380.004 417.129 377.865 417.367 375.736C417.564 373.992 417.837 372.259 418.186 370.54C420.092 361.208 424.183 352.461 430.124 345.018C432.999 343.449 435.325 341.035 436.787 338.103C437.316 337.049 437.691 335.924 437.898 334.763C437.574 334.805 437.244 334.832 436.92 334.853C436.819 334.858 436.712 334.864 436.611 334.869L436.573 334.871C436.217 334.887 435.863 334.799 435.555 334.619C435.247 334.439 434.998 334.173 434.837 333.855C434.677 333.536 434.611 333.177 434.65 332.823C434.688 332.468 434.828 332.131 435.053 331.854C435.193 331.682 435.333 331.509 435.473 331.337C435.686 331.071 435.904 330.811 436.117 330.545C436.141 330.519 436.164 330.493 436.186 330.465C436.43 330.162 436.675 329.864 436.92 329.561C436.473 328.867 435.873 328.287 435.165 327.864C432.714 326.428 429.332 327.422 427.561 329.64C425.785 331.858 425.45 334.97 426.067 337.741C426.673 340.1 427.677 342.337 429.034 344.358C428.901 344.529 428.763 344.694 428.63 344.864C426.2 347.99 424.082 351.346 422.306 354.885C422.738 350.92 422.222 346.91 420.802 343.183C419.363 339.71 416.665 336.785 414.29 333.782C411.436 330.176 405.585 331.75 405.082 336.321C405.077 336.366 405.073 336.41 405.068 336.454C405.421 336.653 405.766 336.865 406.104 337.088C406.529 337.372 406.858 337.777 407.048 338.251C407.238 338.725 407.281 339.246 407.171 339.744C407.06 340.243 406.802 340.697 406.429 341.046C406.056 341.395 405.587 341.624 405.082 341.702L405.031 341.71C405.157 342.982 405.379 344.242 405.695 345.481C406.613 348.938 408.235 352.169 410.46 354.969C412.684 357.77 415.463 360.081 418.622 361.758C418.83 361.864 419.032 361.97 419.239 362.071C417.455 367.128 416.336 372.396 415.91 377.742C415.669 380.895 415.683 384.064 415.953 387.215L415.937 387.103C415.256 383.599 413.387 380.437 410.646 378.151C406.574 374.805 400.822 373.573 396.429 370.884C395.963 370.584 395.42 370.424 394.865 370.423C394.31 370.422 393.767 370.579 393.298 370.876C392.83 371.174 392.457 371.599 392.222 372.102C391.987 372.605 391.902 373.165 391.974 373.715C391.98 373.754 391.986 373.793 391.992 373.832C392.647 374.099 393.285 374.406 393.901 374.752C394.254 374.951 394.6 375.163 394.938 375.386C395.362 375.67 395.691 376.076 395.881 376.549C396.072 377.023 396.114 377.544 396.004 378.043C395.893 378.541 395.635 378.995 395.262 379.344C394.89 379.693 394.42 379.922 393.916 380L393.864 380.008C393.827 380.013 393.795 380.018 393.758 380.024C394.877 382.696 396.447 385.156 398.4 387.295C400.812 389.885 403.728 391.954 406.969 393.376C410.21 394.799 413.706 395.544 417.245 395.566H417.25C418.211 399.742 419.603 403.806 421.403 407.694H436.239C436.292 407.529 436.34 407.359 436.388 407.194C435.015 407.28 433.636 407.198 432.283 406.949C433.383 405.598 434.484 404.236 435.585 402.885C435.609 402.86 435.633 402.833 435.654 402.806C436.212 402.114 436.776 401.428 437.334 400.736L437.335 400.736C437.364 398.616 437.121 396.501 436.611 394.444L436.611 394.444ZM419.622 361.013L419.63 361.002L419.622 361.023V361.013ZM416.336 390.646L416.208 390.359C416.213 390.151 416.213 389.944 416.208 389.731C416.208 389.673 416.197 389.614 416.197 389.556C416.245 389.923 416.288 390.29 416.341 390.657L416.336 390.646Z" fill="#CCCCCC"/>
<path d="M470.511 220.505H359.328C359.087 220.5 358.858 220.401 358.69 220.229C358.522 220.056 358.428 219.825 358.428 219.585C358.428 219.344 358.522 219.113 358.69 218.941C358.858 218.769 359.087 218.67 359.328 218.664H470.511C470.751 218.67 470.98 218.769 471.148 218.941C471.316 219.113 471.411 219.344 471.411 219.585C471.411 219.825 471.316 220.056 471.148 220.229C470.98 220.401 470.751 220.5 470.511 220.505Z" fill="#CACACA"/>
<path d="M365.26 216.003C366.753 216.003 367.964 214.764 367.964 213.237C367.964 211.71 366.753 210.471 365.26 210.471C363.766 210.471 362.555 211.71 362.555 213.237C362.555 214.764 363.766 216.003 365.26 216.003Z" fill="#3F3D56"/>
<path d="M374.602 216.003C376.096 216.003 377.307 214.764 377.307 213.237C377.307 211.71 376.096 210.471 374.602 210.471C373.109 210.471 371.898 211.71 371.898 213.237C371.898 214.764 373.109 216.003 374.602 216.003Z" fill="#3F3D56"/>
<path d="M383.945 216.003C385.439 216.003 386.65 214.764 386.65 213.237C386.65 211.71 385.439 210.471 383.945 210.471C382.451 210.471 381.241 211.71 381.241 213.237C381.241 214.764 382.451 216.003 383.945 216.003Z" fill="#3F3D56"/>
<path d="M466.165 211.54H460.113C459.993 211.542 459.878 211.592 459.794 211.677C459.71 211.763 459.663 211.878 459.663 211.998C459.663 212.118 459.71 212.234 459.794 212.319C459.878 212.405 459.993 212.454 460.113 212.457H466.165C466.285 212.454 466.399 212.405 466.483 212.319C466.567 212.234 466.614 212.118 466.614 211.998C466.614 211.878 466.567 211.763 466.483 211.677C466.399 211.592 466.285 211.542 466.165 211.54Z" fill="#3F3D56"/>
<path d="M466.165 213.261H460.113C459.993 213.263 459.878 213.312 459.794 213.398C459.71 213.484 459.663 213.599 459.663 213.719C459.663 213.839 459.71 213.954 459.794 214.04C459.878 214.126 459.993 214.175 460.113 214.177H466.165C466.285 214.175 466.399 214.126 466.483 214.04C466.567 213.954 466.614 213.839 466.614 213.719C466.614 213.599 466.567 213.484 466.483 213.398C466.399 213.312 466.285 213.263 466.165 213.261Z" fill="#3F3D56"/>
<path d="M466.165 214.979H460.113C459.993 214.981 459.878 215.031 459.794 215.116C459.71 215.202 459.663 215.317 459.663 215.437C459.663 215.558 459.71 215.673 459.794 215.758C459.878 215.844 459.993 215.894 460.113 215.896H466.165C466.285 215.894 466.399 215.844 466.483 215.758C466.567 215.673 466.614 215.558 466.614 215.437C466.614 215.317 466.567 215.202 466.483 215.116C466.399 215.031 466.285 214.981 466.165 214.979Z" fill="#3F3D56"/>
<path d="M285.771 304.967H221.311C220.399 304.968 219.525 305.332 218.881 305.978C218.237 306.623 217.876 307.499 217.876 308.411V410.273H289.214V308.411C289.215 307.958 289.126 307.51 288.953 307.093C288.78 306.675 288.526 306.295 288.207 305.975C287.887 305.655 287.507 305.401 287.089 305.228C286.671 305.055 286.224 304.966 285.771 304.967ZM253.758 362.843C251.742 362.834 249.811 362.029 248.386 360.603C246.961 359.177 246.156 357.246 246.146 355.229V343.48C246.148 341.462 246.951 339.527 248.378 338.1C249.805 336.674 251.74 335.873 253.758 335.873C255.776 335.873 257.711 336.674 259.138 338.1C260.565 339.527 261.368 341.462 261.37 343.48V355.229C261.36 357.246 260.555 359.177 259.13 360.603C257.704 362.029 255.774 362.834 253.758 362.843Z" fill="#E6E6E6"/>
<path d="M217.655 407.014V416.842C217.656 417.351 217.859 417.839 218.219 418.199C218.579 418.559 219.067 418.762 219.576 418.763H287.515C288.024 418.761 288.511 418.558 288.87 418.198C289.23 417.838 289.433 417.351 289.436 416.842V407.014L217.655 407.014Z" fill="#CCCCCC"/>
<path d="M392.513 146H116.968C114.6 146.004 112.331 146.946 110.657 148.621C108.983 150.295 108.041 152.565 108.037 154.933V340.932C108.04 343.3 108.981 345.571 110.656 347.246C112.33 348.921 114.6 349.863 116.968 349.865H392.513C394.881 349.863 397.151 348.921 398.825 347.246C400.5 345.571 401.441 343.3 401.443 340.932V154.933C401.44 152.565 400.497 150.295 398.824 148.621C397.15 146.946 394.88 146.004 392.513 146Z" fill="#E6E6E6"/>
<path d="M390.213 152.452H119.27C118.002 152.455 116.788 152.961 115.892 153.858C114.997 154.756 114.494 155.972 114.494 157.24V338.628C114.496 339.895 115 341.108 115.895 342.004C116.79 342.899 118.004 343.404 119.27 343.406H390.213C391.479 343.404 392.692 342.899 393.588 342.004C394.483 341.108 394.987 339.895 394.989 338.628V157.24C394.989 155.972 394.486 154.756 393.59 153.858C392.695 152.961 391.48 152.455 390.213 152.452Z" fill="white"/>
<path d="M394.989 157.24V338.628C394.987 339.895 394.483 341.108 393.588 342.004C392.692 342.899 391.479 343.404 390.213 343.406H294.672C284.103 333.601 275.432 321.93 269.094 308.979C268.677 308.145 268.28 307.301 267.903 306.447C262.128 293.912 258.631 280.448 257.576 266.687C257.507 265.842 257.447 264.998 257.407 264.144C257.278 261.959 257.219 259.744 257.219 257.519C257.2 242.722 259.993 228.056 265.45 214.302C265.778 213.448 266.125 212.604 266.483 211.76C277.465 185.948 297.31 164.913 322.435 152.452H390.213C391.48 152.455 392.695 152.961 393.59 153.858C394.486 154.756 394.989 155.972 394.989 157.24Z" fill="#00D990"/>
<path d="M376.593 177.444H123.073C122.809 177.438 122.558 177.329 122.374 177.141C122.189 176.952 122.086 176.699 122.086 176.435C122.086 176.171 122.189 175.918 122.374 175.73C122.558 175.541 122.809 175.432 123.073 175.427H376.593C376.857 175.432 377.108 175.541 377.292 175.73C377.477 175.918 377.58 176.171 377.58 176.435C377.58 176.699 377.477 176.952 377.292 177.141C377.108 177.329 376.857 177.438 376.593 177.444Z" fill="#CACACA"/>
<path d="M140.33 170.277C143.593 170.277 146.239 167.572 146.239 164.235C146.239 160.899 143.593 158.193 140.33 158.193C137.067 158.193 134.422 160.899 134.422 164.235C134.422 167.572 137.067 170.277 140.33 170.277Z" fill="#3F3D56"/>
<path d="M160.741 170.277C164.004 170.277 166.65 167.572 166.65 164.235C166.65 160.899 164.004 158.193 160.741 158.193C157.478 158.193 154.833 160.899 154.833 164.235C154.833 167.572 157.478 170.277 160.741 170.277Z" fill="#3F3D56"/>
<path d="M181.152 170.277C184.415 170.277 187.06 167.572 187.06 164.235C187.06 160.899 184.415 158.193 181.152 158.193C177.889 158.193 175.244 160.899 175.244 164.235C175.244 167.572 177.889 170.277 181.152 170.277Z" fill="#3F3D56"/>
<path d="M364.304 159.691H349.805C349.518 159.697 349.244 159.815 349.043 160.02C348.842 160.226 348.729 160.502 348.729 160.789C348.729 161.077 348.842 161.353 349.043 161.558C349.244 161.763 349.518 161.882 349.805 161.887H364.304C364.591 161.882 364.865 161.763 365.066 161.558C365.268 161.353 365.38 161.077 365.38 160.789C365.38 160.502 365.268 160.226 365.066 160.02C364.865 159.815 364.591 159.697 364.304 159.691Z" fill="#3F3D56"/>
<path d="M364.304 163.813H349.805C349.518 163.819 349.244 163.937 349.043 164.142C348.842 164.348 348.729 164.624 348.729 164.911C348.729 165.199 348.842 165.475 349.043 165.68C349.244 165.886 349.518 166.004 349.805 166.01H364.304C364.591 166.004 364.865 165.886 365.066 165.68C365.268 165.475 365.38 165.199 365.38 164.911C365.38 164.624 365.268 164.348 365.066 164.142C364.865 163.937 364.591 163.819 364.304 163.813Z" fill="#3F3D56"/>
<path d="M364.304 167.93H349.805C349.518 167.936 349.244 168.054 349.043 168.259C348.842 168.465 348.729 168.741 348.729 169.028C348.729 169.316 348.842 169.592 349.043 169.797C349.244 170.002 349.518 170.121 349.805 170.126H364.304C364.591 170.121 364.865 170.002 365.066 169.797C365.268 169.592 365.38 169.316 365.38 169.028C365.38 168.741 365.268 168.465 365.066 168.259C364.865 168.054 364.591 167.936 364.304 167.93Z" fill="#3F3D56"/>
<path d="M200.698 236.361H165.245C163.908 236.361 162.824 237.446 162.824 238.784V242.559C162.824 243.896 163.908 244.981 165.245 244.981H200.698C202.035 244.981 203.119 243.896 203.119 242.559V238.784C203.119 237.446 202.035 236.361 200.698 236.361Z" fill="#00D990"/>
<path d="M221.162 253.6H144.78C143.443 253.6 142.359 254.685 142.359 256.022V259.798C142.359 261.135 143.443 262.22 144.78 262.22H221.162C222.499 262.22 223.584 261.135 223.584 259.798V256.022C223.584 254.685 222.499 253.6 221.162 253.6Z" fill="#E6E6E6"/>
<path d="M221.162 270.839H144.78C143.443 270.839 142.359 271.924 142.359 273.261V277.036C142.359 278.374 143.443 279.459 144.78 279.459H221.162C222.499 279.459 223.584 278.374 223.584 277.036V273.261C223.584 271.924 222.499 270.839 221.162 270.839Z" fill="#E6E6E6"/>
<path d="M148.989 333.006C148.995 336.557 148.362 340.079 147.122 343.406H119.27C118.004 343.404 116.79 342.899 115.895 342.004C115 341.108 114.496 339.895 114.494 338.628V303.586C116.05 303.334 117.624 303.208 119.2 303.209C123.112 303.208 126.986 303.979 130.6 305.476C134.214 306.974 137.498 309.169 140.264 311.936C143.031 314.703 145.225 317.988 146.722 321.603C148.219 325.218 148.989 329.093 148.989 333.006Z" fill="#6C63FF"/>
<path opacity="0.2" d="M395.237 214.302V211.76H352.63V182.29H350.098V211.76H301.265V182.29H298.733V211.76H266.483C266.125 212.604 265.778 213.448 265.45 214.302H298.733V264.144H257.407C257.447 264.998 257.507 265.842 257.576 266.687H298.733V306.447H267.903C268.28 307.301 268.677 308.145 269.094 308.98H298.733V342.402H301.265V308.98H350.098V342.402H352.63V308.98H395.237V306.447H352.63V306.447C352.63 301.225 353.658 296.055 355.656 291.231C357.653 286.407 360.581 282.024 364.272 278.332C367.963 274.64 372.344 271.711 377.167 269.713C381.989 267.715 387.158 266.687 392.377 266.687H395.237V264.144H352.63V214.302H395.237ZM350.098 306.447H301.265V266.687H350.098V306.447ZM350.098 264.144H301.265V263.151C301.265 250.195 306.41 237.771 315.568 228.61C324.726 219.449 337.147 214.302 350.098 214.302H350.098V264.144Z" fill="black"/>
<path d="M360.932 324.587C360.389 324.612 359.851 324.47 359.391 324.178C358.931 323.887 358.572 323.462 358.362 322.96C358.152 322.458 358.102 321.903 358.217 321.371C358.333 320.84 358.61 320.356 359.009 319.987C359.076 319.721 359.124 319.53 359.191 319.264C359.167 319.206 359.143 319.148 359.119 319.09C356.676 313.263 348.397 313.304 345.975 319.139C343.825 324.318 341.088 329.506 340.414 334.983C340.117 337.403 340.242 339.857 340.784 342.235C335.735 331.217 333.113 319.242 333.096 307.122C333.095 304.081 333.264 301.042 333.602 298.019C333.882 295.541 334.269 293.081 334.765 290.638C337.471 277.385 343.282 264.963 351.719 254.392C355.803 252.164 359.106 248.736 361.182 244.572C361.934 243.075 362.466 241.477 362.76 239.828C362.3 239.888 361.831 239.926 361.371 239.956C361.227 239.964 361.076 239.971 360.933 239.979L360.879 239.981C360.372 240.004 359.87 239.88 359.433 239.624C358.995 239.368 358.641 238.99 358.413 238.538C358.185 238.085 358.093 237.576 358.147 237.072C358.201 236.568 358.4 236.09 358.719 235.697C358.918 235.452 359.117 235.207 359.317 234.963C359.619 234.585 359.928 234.215 360.23 233.837C360.265 233.801 360.298 233.763 360.328 233.724C360.676 233.293 361.023 232.87 361.371 232.439C360.737 231.455 359.884 230.63 358.879 230.03C355.397 227.99 350.594 229.403 348.079 232.553C345.557 235.703 345.081 240.122 345.957 244.058C346.705 247.427 348.336 250.517 350.171 253.456C349.982 253.697 349.786 253.932 349.597 254.173C346.146 258.613 343.138 263.38 340.616 268.406C341.229 262.775 340.497 257.079 338.481 251.786C336.437 246.854 332.605 242.699 329.231 238.435C325.179 233.313 316.869 235.548 316.155 242.041C316.148 242.104 316.141 242.167 316.134 242.23C316.636 242.513 317.126 242.813 317.606 243.13C318.209 243.533 318.676 244.109 318.946 244.782C319.217 245.455 319.277 246.195 319.121 246.903C318.964 247.611 318.597 248.255 318.067 248.751C317.538 249.247 316.872 249.572 316.155 249.682L316.082 249.694C316.26 251.5 316.576 253.291 317.026 255.05C318.329 259.96 320.633 264.548 323.792 268.526C326.951 272.503 330.898 275.786 335.384 278.166C335.679 278.317 335.966 278.468 336.26 278.612C333.727 285.794 332.138 293.275 331.533 300.867C331.19 305.346 331.211 309.846 331.593 314.321L331.571 314.163C330.604 309.186 327.95 304.695 324.056 301.449C318.274 296.697 310.104 294.947 303.866 291.128C300.863 289.289 297.015 291.665 297.539 295.148C297.547 295.203 297.555 295.259 297.564 295.315C298.494 295.693 299.4 296.13 300.275 296.621C300.776 296.904 301.267 297.204 301.747 297.522C302.35 297.925 302.817 298.501 303.087 299.174C303.358 299.847 303.418 300.586 303.261 301.294C303.105 302.003 302.737 302.647 302.208 303.143C301.679 303.639 301.012 303.963 300.296 304.074L300.222 304.085C300.17 304.093 300.124 304.1 300.071 304.108C301.66 307.903 303.891 311.396 306.664 314.435C310.091 318.113 314.232 321.052 318.834 323.072C323.436 325.091 328.403 326.15 333.428 326.182H333.436C334.8 332.112 336.777 337.884 339.334 343.406H360.404C360.48 343.172 360.548 342.93 360.616 342.696C358.665 342.818 356.707 342.702 354.785 342.348C356.349 340.429 357.912 338.495 359.475 336.577C359.51 336.541 359.543 336.503 359.573 336.463C360.366 335.481 361.167 334.507 361.96 333.525L361.96 333.523C362.002 330.513 361.657 327.51 360.933 324.588L360.932 324.587ZM336.804 277.108L336.815 277.094L336.804 277.124V277.108ZM332.137 319.194L331.956 318.786C331.963 318.491 331.963 318.197 331.956 317.895C331.956 317.811 331.941 317.728 331.941 317.645C332.009 318.167 332.069 318.688 332.145 319.209L332.137 319.194Z" fill="#2F2E41"/>
<path d="M173.311 275.293V246.967C173.311 242.619 171.585 238.449 168.511 235.374C165.437 232.299 161.269 230.572 156.922 230.572H96.9273C92.5806 230.572 88.4119 232.299 85.3383 235.374C82.2647 238.449 80.5379 242.619 80.5379 246.967V402.369C80.5379 406.717 82.2647 410.887 85.3383 413.961C88.4119 417.036 92.5806 418.763 96.9273 418.763H156.922C159.074 418.763 161.205 418.339 163.194 417.515C165.182 416.691 166.989 415.484 168.511 413.961C170.033 412.439 171.24 410.632 172.064 408.643C172.887 406.654 173.311 404.522 173.311 402.369V295.457C173.585 295.457 173.848 295.348 174.042 295.154C174.236 294.96 174.345 294.697 174.345 294.423V276.327C174.345 276.053 174.236 275.79 174.042 275.596C173.848 275.402 173.586 275.293 173.311 275.293Z" fill="#E6E6E6"/>
<path d="M169.823 247.079V402.257C169.824 405.48 168.553 408.573 166.286 410.864C164.02 413.156 160.941 414.46 157.719 414.493C157.675 414.498 157.63 414.5 157.585 414.499H97.2986C94.0529 414.498 90.9402 413.209 88.6452 410.913C86.3502 408.617 85.0607 405.503 85.0604 402.257V247.079C85.0607 243.833 86.3502 240.719 88.6452 238.423C90.9402 236.127 94.0529 234.837 97.2986 234.837H104.615C104.255 235.721 104.118 236.679 104.215 237.628C104.313 238.577 104.642 239.487 105.174 240.279C105.706 241.071 106.424 241.72 107.266 242.169C108.107 242.618 109.046 242.853 110 242.853H144.37C145.323 242.851 146.261 242.614 147.101 242.165C147.941 241.715 148.658 241.066 149.189 240.275C149.72 239.484 150.049 238.574 150.147 237.626C150.245 236.678 150.108 235.72 149.75 234.837H157.585C160.831 234.837 163.943 236.127 166.239 238.423C168.534 240.719 169.823 243.832 169.823 247.079Z" fill="white"/>
<path d="M157.87 409.709C157.87 411.317 157.82 412.911 157.719 414.493C157.675 414.498 157.63 414.5 157.585 414.499H97.2986C94.0529 414.498 90.9402 413.209 88.6452 410.913C86.3502 408.617 85.0607 405.503 85.0604 402.257V333.103C104.703 334.094 123.213 342.597 136.765 356.855C150.316 371.113 157.872 390.035 157.87 409.709Z" fill="#F2F2F2"/>
<path d="M80.8695 291.14C80.4996 291.14 80.145 290.993 79.8834 290.731C79.6219 290.469 79.4748 290.115 79.4743 289.745V280.255C79.4743 279.885 79.6213 279.53 79.8829 279.268C80.1446 279.006 80.4994 278.859 80.8695 278.859C81.2395 278.859 81.5943 279.006 81.856 279.268C82.1176 279.53 82.2646 279.885 82.2646 280.255V289.745C82.2642 290.115 82.117 290.469 81.8555 290.731C81.5939 290.993 81.2393 291.14 80.8695 291.14Z" fill="#E6E6E6"/>
<path d="M134.844 283.563H120.04C118.702 283.563 117.618 284.647 117.618 285.985V289.76C117.618 291.098 118.702 292.182 120.04 292.182H134.844C136.181 292.182 137.266 291.098 137.266 289.76V285.985C137.266 284.647 136.181 283.563 134.844 283.563Z" fill="#00D990"/>
<path d="M155.309 300.802H99.575C98.2377 300.802 97.1536 301.886 97.1536 303.224V306.999C97.1536 308.337 98.2377 309.421 99.575 309.421H155.309C156.646 309.421 157.73 308.337 157.73 306.999V303.224C157.73 301.886 156.646 300.802 155.309 300.802Z" fill="#E6E6E6"/>
<path d="M155.309 318.041H99.575C98.2377 318.041 97.1536 319.125 97.1536 320.463V324.238C97.1536 325.576 98.2377 326.66 99.575 326.66H155.309C156.646 326.66 157.73 325.576 157.73 324.238V320.463C157.73 319.125 156.646 318.041 155.309 318.041Z" fill="#E6E6E6"/>
<path d="M141.898 405.668C141.643 405.68 141.391 405.613 141.175 405.476C140.96 405.339 140.791 405.14 140.693 404.904C140.594 404.669 140.57 404.408 140.625 404.159C140.679 403.909 140.809 403.682 140.996 403.509L141.081 403.17C141.07 403.143 141.059 403.115 141.047 403.088C140.791 402.481 140.36 401.964 139.81 401.601C139.26 401.237 138.615 401.045 137.956 401.048C137.297 401.05 136.653 401.247 136.106 401.614C135.559 401.981 135.132 402.502 134.879 403.111C133.871 405.542 132.586 407.976 132.27 410.546C132.131 411.682 132.19 412.833 132.444 413.949C130.074 408.779 128.844 403.16 128.836 397.472C128.836 396.045 128.915 394.619 129.073 393.2C129.205 392.037 129.387 390.883 129.619 389.737C130.889 383.518 133.616 377.688 137.575 372.728C139.492 371.682 141.041 370.073 142.016 368.119C142.369 367.417 142.618 366.667 142.756 365.893C142.54 365.921 142.32 365.939 142.104 365.953C142.037 365.957 141.966 365.96 141.899 365.964L141.873 365.965C141.636 365.976 141.4 365.917 141.195 365.797C140.99 365.677 140.824 365.5 140.716 365.288C140.609 365.075 140.566 364.836 140.591 364.6C140.617 364.363 140.71 364.139 140.86 363.955C140.954 363.84 141.047 363.725 141.14 363.61C141.282 363.433 141.427 363.259 141.569 363.082C141.586 363.065 141.601 363.047 141.615 363.029C141.778 362.827 141.941 362.628 142.104 362.426C141.807 361.964 141.407 361.577 140.935 361.295C139.301 360.338 137.047 361.001 135.867 362.479C134.683 363.957 134.46 366.031 134.871 367.878C135.275 369.45 135.944 370.941 136.849 372.288C136.76 372.402 136.668 372.511 136.579 372.625C134.96 374.708 133.548 376.945 132.365 379.304C132.653 376.661 132.309 373.988 131.363 371.505C130.404 369.19 128.606 367.241 127.022 365.24C126.604 364.702 126.035 364.301 125.388 364.086C124.742 363.872 124.046 363.854 123.389 364.035C122.732 364.217 122.144 364.588 121.698 365.104C121.253 365.619 120.97 366.256 120.886 366.932C120.883 366.961 120.88 366.991 120.876 367.02C121.112 367.153 121.342 367.294 121.567 367.443C121.85 367.632 122.069 367.902 122.196 368.218C122.323 368.534 122.351 368.881 122.278 369.213C122.204 369.545 122.032 369.848 121.784 370.081C121.535 370.313 121.222 370.466 120.886 370.517L120.852 370.523C120.935 371.371 121.084 372.211 121.295 373.036C121.906 375.34 122.987 377.493 124.47 379.36C125.952 381.227 127.804 382.767 129.91 383.884C130.048 383.955 130.183 384.026 130.321 384.093C129.132 387.463 128.386 390.974 128.102 394.537C127.942 396.639 127.951 398.75 128.131 400.85L128.12 400.776C127.666 398.44 126.421 396.333 124.594 394.81C121.88 392.58 118.047 391.759 115.119 389.966C114.808 389.767 114.446 389.66 114.077 389.659C113.707 389.658 113.345 389.763 113.032 389.961C112.72 390.16 112.471 390.443 112.315 390.778C112.159 391.113 112.102 391.486 112.15 391.853L112.162 391.931C112.598 392.109 113.023 392.314 113.434 392.544C113.669 392.677 113.9 392.818 114.125 392.967C114.408 393.156 114.627 393.426 114.754 393.742C114.881 394.058 114.909 394.405 114.836 394.737C114.762 395.07 114.59 395.372 114.341 395.605C114.093 395.837 113.78 395.99 113.444 396.042L113.409 396.047C113.385 396.05 113.363 396.054 113.339 396.058C114.084 397.839 115.131 399.478 116.432 400.904C118.04 402.629 119.984 404.009 122.143 404.957C124.303 405.904 126.634 406.401 128.992 406.416H128.995C129.636 409.199 130.563 411.908 131.763 414.499H141.651C141.686 414.389 141.718 414.275 141.75 414.165C140.835 414.223 139.916 414.168 139.014 414.002C139.748 413.102 140.481 412.194 141.215 411.294C141.231 411.277 141.247 411.259 141.261 411.241C141.633 410.78 142.009 410.323 142.381 409.862L142.381 409.861C142.401 408.449 142.239 407.039 141.899 405.668L141.898 405.668ZM130.576 383.388L130.581 383.381L130.576 383.395V383.388ZM128.386 403.137L128.301 402.946C128.304 402.807 128.304 402.669 128.301 402.527C128.301 402.488 128.294 402.449 128.294 402.41C128.326 402.655 128.354 402.899 128.389 403.144L128.386 403.137Z" fill="#CCCCCC"/>
<path d="M80.5904 272.719C80.2206 272.718 79.8659 272.571 79.6044 272.309C79.3429 272.048 79.1957 271.693 79.1953 271.323V261.833C79.1953 261.463 79.3423 261.108 79.6039 260.846C79.8656 260.585 80.2204 260.437 80.5904 260.437C80.9604 260.437 81.3153 260.585 81.5769 260.846C81.8386 261.108 81.9856 261.463 81.9856 261.833V271.323C81.9851 271.693 81.838 272.048 81.5765 272.309C81.3149 272.571 80.9603 272.718 80.5904 272.719Z" fill="#E6E6E6"/>
<path d="M117.701 236.433C117.701 236.063 117.849 235.709 118.11 235.447C118.372 235.186 118.726 235.038 119.096 235.038H128.583C128.953 235.038 129.308 235.185 129.57 235.447C129.831 235.708 129.978 236.063 129.978 236.433C129.978 236.804 129.831 237.159 129.57 237.42C129.308 237.682 128.953 237.829 128.583 237.829H119.096C118.726 237.829 118.372 237.681 118.11 237.42C117.849 237.158 117.701 236.803 117.701 236.433Z" fill="white"/>
<path d="M80.8695 307.329C80.4996 307.329 80.145 307.181 79.8834 306.92C79.6219 306.658 79.4748 306.303 79.4743 305.933V296.443C79.4743 296.073 79.6213 295.718 79.8829 295.457C80.1446 295.195 80.4994 295.048 80.8695 295.048C81.2395 295.048 81.5943 295.195 81.856 295.457C82.1176 295.718 82.2646 296.073 82.2646 296.443V305.933C82.2642 306.303 82.117 306.658 81.8555 306.92C81.5939 307.181 81.2393 307.329 80.8695 307.329Z" fill="#E6E6E6"/>
<path d="M133.885 237.829C134.655 237.829 135.28 237.204 135.28 236.433C135.28 235.663 134.655 235.038 133.885 235.038C133.114 235.038 132.489 235.663 132.489 236.433C132.489 237.204 133.114 237.829 133.885 237.829Z" fill="white"/>
<path d="M505.334 418.76L26.6625 418.931C26.4867 418.931 26.3181 418.86 26.1939 418.736C26.0697 418.611 26 418.442 26 418.266C26 418.091 26.0697 417.922 26.1939 417.797C26.3181 417.673 26.4867 417.602 26.6625 417.602L505.334 417.43C505.51 417.43 505.679 417.5 505.803 417.625C505.928 417.75 505.998 417.919 505.998 418.095C505.998 418.271 505.928 418.44 505.803 418.565C505.679 418.69 505.51 418.76 505.334 418.76Z" fill="#CACACA"/>
<path d="M230.678 272.22L228.16 272.76C228.143 271.706 228.012 270.658 227.768 269.632C227.539 270.888 227.057 272.083 226.351 273.146L211.91 276.231L198.046 261.595C198.025 254.277 202.088 248.716 209.371 248.716C209.81 248.716 210.265 248.737 210.725 248.78C214.661 248.121 218.698 249.015 221.987 251.274C225.277 253.533 227.562 256.981 228.361 260.891C233.523 265.976 231.651 268.966 230.678 272.22Z" fill="#2F2E41"/>
<path d="M237.777 443.377H243.015L245.507 423.166L237.776 423.166L237.777 443.377Z" fill="#FFB6B6"/>
<path d="M236.478 440.792L244.758 440.298V443.846L252.63 449.285C253.019 449.553 253.312 449.939 253.466 450.386C253.62 450.833 253.627 451.317 253.487 451.769C253.346 452.22 253.065 452.614 252.684 452.894C252.304 453.175 251.844 453.326 251.371 453.326H241.513L239.814 449.815L239.151 453.326H235.434L236.478 440.792Z" fill="#2F2E41"/>
<path d="M176.411 437.673L180.967 440.259L193.105 423.911L186.381 420.095L176.411 437.673Z" fill="#FFB6B6"/>
<path d="M176.556 434.784L184.002 438.441L182.251 441.528L186.415 450.144C186.621 450.57 186.685 451.05 186.599 451.515C186.512 451.979 186.28 452.404 185.935 452.727C185.59 453.05 185.151 453.255 184.681 453.311C184.212 453.366 183.737 453.271 183.326 453.037L174.752 448.171L175.006 444.279L172.698 447.005L169.465 445.17L176.556 434.784Z" fill="#2F2E41"/>
<path d="M257.138 275.761C256.467 275.858 255.826 276.101 255.258 276.473C254.691 276.845 254.213 277.337 253.856 277.914C253.5 278.491 253.274 279.14 253.195 279.813C253.116 280.487 253.186 281.17 253.399 281.814L245.384 288.754L248.412 294.655L259.594 284.695C260.651 284.265 261.514 283.461 262.019 282.437C262.524 281.413 262.636 280.238 262.333 279.137C262.031 278.036 261.335 277.084 260.377 276.462C259.42 275.839 258.267 275.59 257.139 275.761H257.138Z" fill="#FFB6B6"/>
<path d="M249.067 299.625C246.393 303.676 240.401 307.588 231.507 311.056C231.017 311.253 230.491 311.346 229.963 311.328C229.435 311.311 228.916 311.184 228.439 310.956C225.083 309.428 222.932 303.748 222.73 303.197L216.23 294.426C216.115 294.298 213.075 290.847 213.423 287.455C213.501 286.744 213.732 286.058 214.1 285.445C214.469 284.832 214.965 284.306 215.556 283.903C220.477 280.254 231.504 292.927 232.935 294.612L240.132 290.225L245.377 287.885L249.61 282.732L255.571 288.828L250.21 297.36C249.924 298.159 249.54 298.92 249.067 299.625Z" fill="#2F2E41"/>
<path d="M230.373 315.166C230.373 315.166 245.774 339.707 242.984 342.498C240.194 345.289 235.852 346.022 235.852 346.022L226.243 333.566L230.373 315.166Z" fill="#2F2E41"/>
<path d="M216.756 281.651L224.014 286.562C227.388 288.846 229.926 292.167 231.242 296.023C232.559 299.879 232.582 304.059 231.309 307.93L229.266 314.143L216.756 281.651Z" fill="#2F2E41"/>
<path d="M203.92 348.638L202.95 352.02L199.638 392.794L183.094 423.636L190.99 429.277L213.551 399.94L222.474 370.809L236.487 435.296L247.015 434.543L239.703 345.134L225.828 319.967L203.92 348.638Z" fill="#2F2E41"/>
<path d="M215.521 282.886L225.624 291.145C227.841 292.957 229.438 295.417 230.191 298.18C230.533 299.435 230.696 300.732 230.674 302.033L230.373 319.967L239.636 344.731C239.636 344.731 214.523 354.221 211.175 345.847C207.827 337.474 215.521 282.886 215.521 282.886Z" fill="#00D990"/>
<path d="M218.543 350.194C205.998 350.194 202.94 350.288 202.742 350.248L202.544 350.208V342.66L205.595 329.1C205.238 324.891 204.403 319.339 204.478 314.586C204.752 297.407 203.908 280.625 203.908 280.625L210.547 274.494L213.564 276.458L219.159 282.054C225.663 298.065 230.824 313.139 230.856 314.107L231.265 330.775L229.591 337.474C222.017 342.822 228.937 350.194 218.543 350.194Z" fill="#2F2E41"/>
<path opacity="0.2" d="M206.722 295.591L205.197 305.114L215.521 309.373L206.722 295.591Z" fill="black"/>
<path d="M217.123 272.708C222.705 272.708 227.231 268.181 227.231 262.596C227.231 257.012 222.705 252.484 217.123 252.484C211.54 252.484 207.014 257.012 207.014 262.596C207.014 268.181 211.54 272.708 217.123 272.708Z" fill="#FFB6B6"/>
<path opacity="0.2" d="M200.185 313.901C202.875 317.018 206.524 319.151 210.559 319.967C214.593 320.783 218.784 320.234 222.473 318.408L224.673 317.319L200.185 313.901Z" fill="black"/>
<path d="M235.36 311.574C234.909 311.067 234.352 310.665 233.729 310.397C233.107 310.129 232.433 310 231.755 310.021C231.077 310.041 230.412 310.21 229.806 310.516C229.201 310.821 228.669 311.256 228.25 311.789L218.044 308.922L214.79 314.702L229.26 318.547C230.201 319.193 231.347 319.47 232.48 319.327C233.613 319.184 234.654 318.63 235.406 317.771C236.158 316.911 236.568 315.806 236.56 314.663C236.551 313.521 236.124 312.422 235.36 311.574H235.36Z" fill="#FFB6B6"/>
<path d="M211.004 317.988C206.152 317.988 199.586 315.142 191.792 309.63C191.358 309.329 190.991 308.941 190.714 308.49C190.437 308.04 190.257 307.537 190.185 307.013C189.61 303.37 193.163 298.444 193.511 297.972L197.246 287.713C197.289 287.546 198.492 283.107 201.514 281.528C202.15 281.201 202.849 281.017 203.564 280.986C204.278 280.956 204.99 281.08 205.652 281.351C211.408 283.448 206.913 299.637 206.296 301.76L213.922 305.35L218.764 308.438L225.396 309.131L223.595 317.467L213.524 317.693C212.699 317.895 211.853 317.994 211.004 317.988Z" fill="#2F2E41"/>
<path d="M229.244 255.944C228.435 256.997 225.647 257.928 222.336 258.68C222.341 258.611 222.341 258.542 222.341 258.473C222.325 257.42 222.193 256.371 221.95 255.346C221.721 256.601 221.238 257.797 220.532 258.86C220.479 258.939 220.426 259.018 220.368 259.098C217.528 259.659 214.523 260.092 212.169 260.383C213.788 266.214 219.993 270.998 219.321 274.543L201.141 278.257C201.253 276.784 201.135 275.302 200.792 273.865C200.444 275.762 199.525 277.507 198.157 278.866L196.613 279.183L196.153 276.913C192.164 267.331 197.724 257.521 206.832 252.447C208.456 250.011 210.978 248.318 213.846 247.737L216.115 247.272C217.547 246.979 219.022 246.971 220.456 247.248C221.891 247.525 223.256 248.083 224.475 248.888C225.694 249.693 226.743 250.731 227.561 251.942C228.38 253.152 228.951 254.512 229.244 255.944Z" fill="#2F2E41"/>
<path d="M272.673 439.26L272.942 433.213C275.745 431.715 278.87 430.923 282.048 430.908C277.675 434.484 278.221 441.379 275.256 446.189C274.32 447.682 273.06 448.945 271.569 449.885C270.078 450.825 268.395 451.417 266.645 451.617L262.985 453.859C262.483 451.058 262.593 448.182 263.309 445.428C264.025 442.675 265.33 440.109 267.132 437.908C268.156 436.684 269.33 435.593 270.626 434.662C271.502 436.974 272.673 439.26 272.673 439.26Z" fill="#F2F2F2"/>
<path d="M281.546 454H154.096C153.921 453.999 153.752 453.929 153.628 453.805C153.504 453.68 153.434 453.511 153.434 453.335C153.434 453.159 153.504 452.991 153.628 452.866C153.752 452.741 153.921 452.671 154.096 452.671H281.546C281.633 452.67 281.72 452.687 281.801 452.721C281.882 452.754 281.955 452.803 282.017 452.865C282.079 452.926 282.128 453 282.162 453.081C282.195 453.161 282.212 453.248 282.212 453.335C282.212 453.423 282.195 453.509 282.162 453.59C282.128 453.671 282.079 453.744 282.017 453.806C281.955 453.868 281.882 453.917 281.801 453.95C281.72 453.983 281.633 454 281.546 454Z" fill="#CACACA"/>
<path fill-rule="evenodd" clip-rule="evenodd" d="M449.643 104.924C447.413 102.306 445.903 99.0976 446.155 95.5023C446.882 85.1433 461.302 87.4221 464.107 92.6505C466.912 97.8789 466.579 111.141 462.954 112.075C461.508 112.448 458.428 111.535 455.294 109.646L457.261 123.565H445.644L449.643 104.924Z" fill="#B28B67"/>
<path fill-rule="evenodd" clip-rule="evenodd" d="M469.254 85.4025C469.014 84.5568 468.366 83.8328 467.494 83.618C467.283 83.5659 467.065 83.5449 466.847 83.5536C466.769 83.5568 466.747 83.5793 466.711 83.5247C466.683 83.4842 466.683 83.3853 466.672 83.3378C466.637 83.1899 466.594 83.0439 466.54 82.9016C466.358 82.4164 466.051 81.987 465.682 81.6253C464.99 80.9486 464.056 80.4815 463.085 80.397C462.554 80.3508 462.027 80.4371 461.525 80.6099C461.265 80.6994 461.012 80.8108 460.767 80.9339C460.693 80.971 460.453 81.1525 460.379 81.1408C460.297 81.1278 460.132 80.9241 460.066 80.873C459.242 80.2412 458.225 79.9927 457.199 80.0002C456.041 80.0089 454.926 80.0667 453.961 80.7726C453.756 80.922 453.562 81.0856 453.376 81.2579C453.279 81.3486 453.184 81.4427 453.094 81.5407C453.039 81.5998 452.987 81.6603 452.936 81.7224C452.849 81.8278 452.863 81.8624 452.742 81.7888C452.277 81.5065 451.738 81.3744 451.196 81.4411C450.874 81.4807 450.561 81.5774 450.263 81.7047C450.162 81.748 449.927 81.9209 449.819 81.9225C449.712 81.9242 449.481 81.764 449.37 81.7233C448.774 81.5032 448.132 81.449 447.506 81.5507C446.859 81.6556 446.225 81.9134 445.677 82.2697C445.414 82.441 445.184 82.6309 445 82.8857C444.92 82.9957 444.848 83.1121 444.758 83.2141C444.705 83.2739 444.6 83.3352 444.572 83.4107C444.589 83.3655 443.865 83.0865 443.797 83.0687C443.433 82.9736 443.062 82.9929 442.706 83.1102C442.036 83.3306 441.46 83.825 440.987 84.3319C440.743 84.5922 440.531 84.88 440.35 85.1866C440.263 85.3335 440.184 85.4845 440.112 85.6388C440.077 85.7135 440.053 85.807 440.007 85.8744C439.948 85.9611 439.908 85.9628 439.8 86.0006C439.251 86.1927 438.752 86.5178 438.371 86.9571C437.986 87.4015 437.736 87.9488 437.632 88.5252C437.625 88.5591 437.622 88.6998 437.602 88.7182C437.575 88.7435 437.464 88.7323 437.423 88.7372C437.278 88.7542 437.135 88.7794 436.993 88.8129C436.732 88.8746 436.479 88.9655 436.238 89.0843C435.302 89.5475 434.633 90.4159 434.305 91.393C433.961 92.4184 433.967 93.5933 434.378 94.5996C434.445 94.7621 434.524 94.9199 434.616 95.0691C434.673 95.1608 434.692 95.161 434.655 95.2571C434.614 95.364 434.538 95.468 434.489 95.5725C434.33 95.9135 434.218 96.2751 434.147 96.6445C434.032 97.2504 433.974 97.8872 434.089 98.4977C434.142 98.7812 434.234 99.0584 434.375 99.3109C434.447 99.4396 434.531 99.5617 434.626 99.6747C434.675 99.7333 434.727 99.7893 434.782 99.843C434.813 99.8736 434.854 99.9005 434.881 99.9347C434.946 100.018 434.959 99.9495 434.926 100.072C434.879 100.243 434.773 100.413 434.708 100.579C434.641 100.751 434.58 100.925 434.525 101.101C434.413 101.458 434.318 101.82 434.258 102.189C434.145 102.897 434.165 103.652 434.5 104.302C434.643 104.58 434.848 104.824 435.098 105.014C435.22 105.107 435.352 105.187 435.49 105.252C435.562 105.286 435.653 105.301 435.685 105.37C435.72 105.444 435.668 105.591 435.656 105.674C435.553 106.394 435.502 107.15 435.716 107.856C435.913 108.507 436.347 109.081 436.911 109.461C438.005 110.198 439.479 110.157 440.628 109.566C440.928 109.412 441.208 109.221 441.458 108.996C442.095 109.853 443.405 109.826 444.336 109.582C445.495 109.278 446.425 108.471 446.961 107.412C447.694 108.304 449.232 108.015 449.74 107.047C449.864 106.81 449.938 106.549 449.974 106.285C449.993 106.146 449.981 106.006 449.996 105.868C450.014 105.693 450.131 105.522 450.199 105.352C450.33 105.022 450.411 104.68 450.415 104.323C450.417 104.137 450.393 103.956 450.376 103.771C450.36 103.605 450.406 103.45 450.432 103.286C450.135 103.335 449.772 103.255 449.492 103.168C449.217 103.084 448.96 102.861 448.766 102.658C448.315 102.185 448.04 101.566 447.852 100.949C447.439 99.5961 447.608 97.9727 448.969 97.2301C449.603 96.8842 451.503 96.8853 452.258 97.0563C453.052 97.2361 453.952 98.988 453.996 99.1527C454.023 99.2546 454.01 99.3807 454.103 99.4486C454.309 99.5979 454.648 99.3388 454.8 99.2109C455.062 98.9902 455.249 98.6965 455.411 98.3989C455.763 97.7504 456.047 97.0549 456.248 96.345C456.403 95.7976 456.502 95.2332 456.704 94.6998C456.905 94.1691 457.223 93.6947 457.716 93.394C458.253 93.067 458.868 92.8947 459.457 92.6892C460.041 92.4855 460.615 92.2365 461.068 91.8042C461.167 91.7092 461.264 91.6082 461.344 91.4963C461.407 91.408 461.47 91.2388 461.566 91.1828C461.716 91.0957 461.935 91.3223 462.064 91.4046C462.703 91.8105 463.237 92.3767 463.667 92.9952C464.095 93.6103 464.445 94.2022 464.731 94.889C464.942 95.3984 465.074 96.0508 465.446 96.4683C465.612 96.6547 466.847 96.7675 467.247 96.6048C467.647 96.442 468.095 96.0194 468.229 95.7546C468.367 95.4835 468.399 95.1858 468.341 94.889C468.306 94.7144 468.236 94.5514 468.197 94.3799C468.165 94.2359 468.135 94.0997 468.065 93.9677C467.932 93.7177 467.705 93.538 467.431 93.4628C467.716 93.2001 467.952 92.8859 468.116 92.5346C468.285 92.1697 468.429 91.7259 468.47 91.3253C468.503 91 468.452 90.663 468.274 90.3834C468.087 90.0901 467.756 89.8988 467.47 89.7158C467.907 89.3736 468.282 88.9574 468.589 88.4965C469.188 87.6004 469.558 86.4708 469.254 85.4025Z" fill="#191847"/>
<path fill-rule="evenodd" clip-rule="evenodd" d="M511.238 242.479C505.036 228.752 500.551 216.799 498.75 210.492C495.668 199.694 493.322 190.193 492.73 186.644C491.316 178.183 503.603 177.69 505.227 181.895C507.685 188.26 511.976 209.172 517.132 240.759L511.238 242.479ZM439.297 199.399C444.988 197.15 464.915 190.111 474.526 188.12C477.288 187.548 479.965 187.016 482.482 186.536C489.962 185.107 493.838 198.603 486.633 199.64C468.691 202.222 443.254 204.889 441.077 205.188C438.026 205.607 435.721 200.813 439.297 199.399Z" fill="#B28B67"/>
<g filter="url(#filter0_i_37_2)">
<path fill-rule="evenodd" clip-rule="evenodd" d="M487.073 182.822L456.293 167.153V163.742H459.954C489.732 171.33 504.948 176.193 505.603 178.331C505.61 178.354 505.617 178.377 505.623 178.4C505.638 178.419 505.653 178.439 505.667 178.459C511.568 186.575 515.103 226.199 516.263 229.165L504.954 230.853C500.629 214.812 486.789 203.637 487.156 184.425C487.057 183.862 487.032 183.327 487.073 182.822Z" fill="#00D990"/>
</g>
<path fill-rule="evenodd" clip-rule="evenodd" d="M458.851 192.127C456.034 191.564 453.441 191.061 451.222 190.671C436.887 188.157 432.707 180.484 435.178 163.742H461.59C465.904 164.981 488.325 174.384 499.958 179.385C507.658 182.695 505.231 194.627 500.87 197.732C500.847 197.923 500.768 198.052 500.629 198.11C477.174 207.831 458.619 202.731 452.421 204.36L449.554 195.316L458.851 192.127Z" fill="#00D990"/>
<path fill-rule="evenodd" clip-rule="evenodd" d="M441.243 197.962C439.706 198.109 438.615 198.34 437.97 198.654C437.186 199.037 436.104 199.726 434.727 200.722C435.171 201.632 439.16 209.811 446.695 225.26C449.114 224.87 450.073 223.947 449.571 222.491C449.069 221.035 448.664 219.819 448.356 218.845L447.878 204.959C447.869 204.692 447.645 204.483 447.377 204.492C447.373 204.493 447.368 204.493 447.364 204.493L445.228 204.627C444.014 203.645 443.213 202.756 442.825 201.961C442.51 201.315 442.336 200.295 442.303 198.902L442.303 198.902C442.29 198.368 441.846 197.945 441.312 197.958C441.289 197.958 441.266 197.96 441.243 197.962Z" fill="#E4E4E4"/>
<path fill-rule="evenodd" clip-rule="evenodd" d="M508.416 239.934C507.874 241.379 507.603 242.461 507.603 243.179C507.603 244.052 507.749 245.325 508.04 247C509.052 247 518.153 247 535.341 247C536.051 244.655 535.641 243.388 534.113 243.201C532.584 243.014 531.314 242.845 530.303 242.695L517.614 237.038C517.369 236.929 517.083 237.038 516.974 237.283C516.973 237.287 516.971 237.291 516.969 237.295L516.153 239.274C514.738 239.934 513.588 240.264 512.704 240.264C511.985 240.264 510.992 239.974 509.726 239.393L509.726 239.393C509.24 239.17 508.665 239.384 508.442 239.87C508.433 239.891 508.424 239.912 508.416 239.934Z" fill="#E4E4E4"/>
<path fill-rule="evenodd" clip-rule="evenodd" d="M484.39 156.057L498.102 169.433C502.092 171.135 505.361 173.014 507.909 175.071C508.483 175.762 509.106 177.087 506.41 176.494C503.714 175.901 500.851 175.399 500.344 176.276C499.837 177.153 501.331 178.497 500.394 179.644C499.77 180.409 497.67 177.976 494.095 172.344L479.836 163.937L484.39 156.057ZM423.526 157.943L433.642 157.983C427.396 178.146 424.024 188.844 423.526 190.078C422.406 192.853 424.776 197.081 425.79 199.353C422.489 200.83 422.841 195.359 418.676 197.297C414.875 199.065 411.983 202.269 407.592 199.56C407.052 199.226 406.46 197.972 407.89 196.992C411.451 194.55 416.584 190.276 417.277 188.869C418.223 186.95 420.306 176.642 423.526 157.943Z" fill="#B28B67"/>
<path fill-rule="evenodd" clip-rule="evenodd" d="M452.273 115.497L456.459 114.779C463.665 132.781 476.247 149.139 494.204 163.851L480.635 180.336C462.68 159.388 451.612 137.775 452.273 115.497Z" fill="#191847"/>
<path fill-rule="evenodd" clip-rule="evenodd" d="M434.026 168.099H471.299C462.664 147.103 458.346 129.267 458.346 114.591L447.103 112.916C438.267 127.127 435.771 144.624 434.026 168.099Z" fill="#DDE3E9"/>
<path fill-rule="evenodd" clip-rule="evenodd" d="M446.865 112.924C446.866 112.921 446.868 112.919 446.869 112.916H447.603C448.481 112.946 449.819 113.001 451.616 113.08L454.333 120.843C454.62 130.309 456.298 149.386 459.367 178.073H434.935C434.999 180.054 435.104 182.054 435.251 184.073H417.084C419.802 153.414 429.726 129.695 446.856 112.916L446.865 112.924V112.924Z" fill="#2F3676"/>
<path fill-rule="evenodd" clip-rule="evenodd" d="M436.549 152.722C437.244 165.072 438.985 173.586 441.771 178.264H434.941C434.642 169.378 435.178 160.864 436.549 152.722V152.722Z" fill="black" fill-opacity="0.1"/>
<path fill-rule="evenodd" clip-rule="evenodd" d="M440.373 163.258L452.421 157.657V163.258H440.373Z" fill="white" fill-opacity="0.2"/>
<defs>
<filter id="filter0_i_37_2" x="456.293" y="155.742" width="59.9696" height="75.1104" filterUnits="userSpaceOnUse" color-interpolation-filters="sRGB">
<feFlood flood-opacity="0" result="BackgroundImageFix"/>
<feBlend mode="normal" in="SourceGraphic" in2="BackgroundImageFix" result="shape"/>
<feColorMatrix in="SourceAlpha" type="matrix" values="0 0 0 0 0 0 0 0 0 0 0 0 0 0 0 0 0 0 127 0" result="hardAlpha"/>
<feOffset dy="-8"/>
<feGaussianBlur stdDeviation="7.5"/>
<feComposite in2="hardAlpha" operator="arithmetic" k2="-1" k3="1"/>
<feColorMatrix type="matrix" values="0 0 0 0 0 0 0 0 0 0 0 0 0 0 0 0 0 0 0.16 0"/>
<feBlend mode="normal" in2="shape" result="effect1_innerShadow_37_2"/>
</filter>
<linearGradient id="paint0_linear_37_2" x1="395.5" y1="482" x2="182" y2="40" gradientUnits="userSpaceOnUse">
<stop stop-color="#0866BE"/>
<stop offset="1" stop-color="#026FD5" stop-opacity="0.2"/>
</linearGradient>
</defs>
</svg>
